<svg xmlns="http://www.w3.org/2000/svg" xmlns:xlink="http://www.w3.org/1999/xlink" width="50" height="50" viewBox="0 0 50 50"><defs><style>.a,.e,.f{fill:none;}.b{clip-path:url(#a);}.c{fill:#7fbf60;stroke:rgba(187,255,153,0.5);stroke-width:4px;}.d{opacity:0.1;}.e,.f{stroke:#bf9;stroke-linecap:round;stroke-width:2px;}.e{stroke-linejoin:round;}.g{stroke:none;}</style><clipPath id="a"><rect class="a" width="50" height="50"/></clipPath></defs><g class="b"><g class="b"><g class="c"><rect class="g" width="50" height="50" rx="25"/><rect class="a" x="2" y="2" width="46" height="46" rx="23"/></g><path class="d" d="M0,0H50a0,0,0,0,1,0,0V0A25,25,0,0,1,25,25h0A25,25,0,0,1,0,0V0A0,0,0,0,1,0,0Z" transform="translate(0 25)"/></g><g transform="translate(-291 -150)"><path class="e" d="M0,0H16a0,0,0,0,1,0,0V18a2,2,0,0,1-2,2H2a2,2,0,0,1-2-2V0A0,0,0,0,1,0,0Z" transform="translate(308 167)"/><line class="f" y2="10" transform="translate(320 172)"/><line class="f" y2="10" transform="translate(316 172)"/><line class="f" y2="10" transform="translate(312 172)"/><line class="f" x2="20" transform="translate(306 167)"/><path class="e" d="M2,0H6A2,2,0,0,1,8,2V4A0,0,0,0,1,8,4H0A0,0,0,0,1,0,4V2A2,2,0,0,1,2,0Z" transform="translate(312 163)"/></g></g></svg>