<svg xmlns="http://www.w3.org/2000/svg" xmlns:xlink="http://www.w3.org/1999/xlink" width="50" height="50" viewBox="0 0 50 50"><defs><style>.a,.e,.g{fill:none;}.b{clip-path:url(#a);}.c,.f{fill:#bf9;}.c{stroke:rgba(0,0,0,0.25);stroke-width:4px;opacity:0;}.d{opacity:0.5;}.e,.f,.g{stroke:#bf9;stroke-linecap:round;stroke-width:2px;}.e,.f{stroke-linejoin:round;}.h{stroke:none;}</style><clipPath id="a"><rect class="a" width="50" height="50"/></clipPath></defs><g class="b"><g class="c"><rect class="h" width="50" height="50" rx="25"/><rect class="a" x="2" y="2" width="46" height="46" rx="23"/></g><g class="d" transform="translate(-418 -148)"><path class="e" d="M-1298,12.49l9-9,10,10-9,9-11,1Zm9-9,.828-.827a4,4,0,0,1,5.656,0l4.349,4.349a4,4,0,0,1,0,5.657l-.827.827Z" transform="translate(1732 159.51)"/><path class="e" d="M1740.571,182l-11,1,1-11Z" transform="translate(-1296.571)"/><path class="f" d="M1731.572,174l-3,1,1-3Z" transform="translate(-1295.571 8)"/><line class="e" x1="9" y2="9" transform="translate(437 166)"/><path class="g" d="M9,1,0,10" transform="translate(441 169)"/></g></g></svg>