<svg xmlns="http://www.w3.org/2000/svg" width="50" height="50" viewBox="0 0 50 50"><defs><style>.a,.d{fill:#bf9;}.a{stroke:rgba(0,0,0,0.25);stroke-width:4px;opacity:0;}.b{opacity:0.5;}.c,.e,.g{fill:none;}.c,.d,.e{stroke:#bf9;stroke-linecap:round;stroke-width:2px;}.c,.d{stroke-linejoin:round;}.f{stroke:none;}</style></defs><g transform="translate(-340 -147)"><g class="a" transform="translate(340 147)"><rect class="f" width="50" height="50" rx="25"/><rect class="g" x="2" y="2" width="46" height="46" rx="23"/></g><g class="b" transform="translate(-78 -1)"><path class="c" d="M-1298,12.49l9-9,10,10-9,9-11,1Zm9-9,.828-.827a4,4,0,0,1,5.656,0l4.349,4.349a4,4,0,0,1,0,5.657l-.827.827Z" transform="translate(1732 159.51)"/><path class="c" d="M1740.571,182l-11,1,1-11Z" transform="translate(-1296.571)"/><path class="d" d="M1731.572,174l-3,1,1-3Z" transform="translate(-1295.571 8)"/><line class="c" x1="9" y2="9" transform="translate(437 166)"/><path class="e" d="M9,1,0,10" transform="translate(441 169)"/></g></g></svg>