<svg xmlns="http://www.w3.org/2000/svg" width="50" height="50" viewBox="0 0 50 50"><defs><style>.a{fill:#bf9;stroke:rgba(0,0,0,0.25);stroke-width:4px;opacity:0;}.b{opacity:0.5;}.c,.d,.f{fill:none;}.c,.d{stroke:#bf9;stroke-linecap:round;stroke-width:2px;}.c{stroke-linejoin:round;}.e{stroke:none;}</style></defs><g transform="translate(-340 -147)"><g class="a" transform="translate(340 147)"><rect class="e" width="50" height="50" rx="25"/><rect class="f" x="2" y="2" width="46" height="46" rx="23"/></g><g class="b" transform="translate(49 -3)"><path class="c" d="M0,0H16a0,0,0,0,1,0,0V18a2,2,0,0,1-2,2H2a2,2,0,0,1-2-2V0A0,0,0,0,1,0,0Z" transform="translate(308 167)"/><line class="d" y2="10" transform="translate(320 172)"/><line class="d" y2="10" transform="translate(316 172)"/><line class="d" y2="10" transform="translate(312 172)"/><line class="d" x2="20" transform="translate(306 167)"/><path class="c" d="M2,0H6A2,2,0,0,1,8,2V4A0,0,0,0,1,8,4H0A0,0,0,0,1,0,4V2A2,2,0,0,1,2,0Z" transform="translate(312 163)"/></g></g></svg>