<svg xmlns="http://www.w3.org/2000/svg" xmlns:xlink="http://www.w3.org/1999/xlink" width="30" height="30" viewBox="0 0 50 50"><defs><style>.a,.c,.e,.f{fill:none;}.b{clip-path:url(#a);}.c{opacity:0.15;}.d{opacity:0.5;}.e,.f{stroke:#bf9;stroke-linecap:round;stroke-width:2px;}.e{stroke-linejoin:round;}</style><clipPath id="a"><rect class="a" width="50" height="50"/></clipPath></defs><g class="b"><path class="c" d="M0,0H50a0,0,0,0,1,0,0V50a0,0,0,0,1,0,0H8a8,8,0,0,1-8-8V0A0,0,0,0,1,0,0Z"/><g class="d" transform="translate(-717 -95)"><path class="e" d="M-1158.9-315h-5.225c-.076-.066-.148-.133-.216-.2l-2.828-2.829a3.974,3.974,0,0,1-1.172-2.829,3.972,3.972,0,0,1,1.172-2.828L-1155.858-335l8.485,8.485-11.313,11.314c-.069.069-.141.136-.216.2Z" transform="translate(1900 443)"/><path class="f" d="M0,0,8,8" transform="translate(736 117)"/><line class="e" x2="20" transform="translate(732 132)"/></g></g></svg>